<?xml version="1.0" encoding="utf-8"?>
<!-- Generator: Adobe Illustrator 23.0.5, SVG Export Plug-In . SVG Version: 6.00 Build 0)  -->
<svg version="1.1" id="Capa_1" xmlns="http://www.w3.org/2000/svg" xmlns:xlink="http://www.w3.org/1999/xlink" x="0px" y="0px"
	 viewBox="0 0 124.08 137.28" style="enable-background:new 0 0 124.08 137.28;" xml:space="preserve">
<style type="text/css">
	.st0{fill:#B70120;}
	.st1{fill:#FEFEFE;}
	.st2{fill:#FCF8F8;}
	.st3{fill:#B60323;}
	.st4{fill:#B60424;}
	.st5{fill:#B50425;}
	.st6{fill:#B70525;}
	.st7{fill:#B50728;}
	.st8{fill:#B50526;}
	.st9{fill:#B50729;}
	.st10{fill:#B40729;}
</style>
<g>
	<g>
		<path class="st0" d="M61.93,0.16c0.24,0,0.48,0,0.72,0c0.5,0.32,0.99,0.66,1.5,0.95c17.58,9.86,35.16,19.72,52.75,29.57
			c2.46,1.38,4.95,2.69,7.42,4.04c0,24,0,48,0,72c-0.15,0.04-0.31,0.06-0.44,0.13c-9.18,4.55-18.35,9.11-27.52,13.66
			c-11.07,5.49-22.13,10.98-33.21,16.45c-0.39,0.19-1.02,0.28-1.38,0.1c-20.25-10-40.49-20.03-60.74-30.04
			c-0.56-0.28-0.81-0.57-0.81-1.25c0.02-23.35,0.02-46.71,0-70.06c0-0.67,0.24-0.97,0.79-1.28C20.3,23.66,39.58,12.88,58.85,2.08
			C59.9,1.49,60.9,0.8,61.93,0.16z M104.24,49.9c-0.03,0-0.05,0-0.08,0c0-1.28-0.05-2.56,0.01-3.84c0.09-2.06-0.96-3.37-2.66-4.31
			c-1.84-1.01-3.69-2.03-5.52-3.05c-5.76-3.2-11.52-6.39-17.27-9.6c-4.67-2.61-9.33-5.25-14-7.86c-1.21-0.68-2.45-0.61-3.63,0.11
			c-5.3,3.23-10.6,6.48-15.9,9.71c-6.46,3.94-12.96,7.84-19.37,11.86c-1.02,0.64-2.08,1.71-2.42,2.79
			c-0.52,1.68-0.44,3.55-0.59,5.34c-0.19,2.35-0.32,4.7-0.54,7.04c-0.39,4.25-0.83,8.5-1.22,12.75c-0.28,3.14-0.51,6.29-0.75,9.43
			c-0.3,4.02-0.62,8.04-0.85,12.06c-0.03,0.52,0.27,1.21,0.65,1.56c0.79,0.72,1.68,1.37,2.63,1.85
			c12.6,6.34,25.23,12.65,37.84,18.98c1,0.5,1.98,0.83,3.07,0.31c3.76-1.83,7.54-3.64,11.29-5.49c5.22-2.58,10.42-5.22,15.65-7.79
			c4.27-2.1,8.54-4.23,12.87-6.18c2.01-0.91,2.66-2.42,2.61-4.38c-0.03-1.3-0.33-2.6-0.4-3.91c-0.19-3.66-0.33-7.32-0.49-10.98
			c-0.16-3.7-0.35-7.4-0.47-11.1C104.52,60.1,104.39,55,104.24,49.9z"/>
		<path class="st1" d="M61.93,0.16C60.9,0.8,59.9,1.49,58.85,2.08C39.58,12.88,20.3,23.66,1.02,34.44
			c-0.55,0.31-0.79,0.61-0.79,1.28c0.02,23.35,0.02,46.71,0,70.06c0,0.68,0.25,0.97,0.81,1.25c20.25,10.01,40.48,20.04,60.74,30.04
			c0.36,0.18,0.99,0.09,1.38-0.1c11.08-5.46,22.14-10.96,33.21-16.45c9.18-4.55,18.35-9.11,27.52-13.66
			c0.14-0.07,0.3-0.09,0.44-0.13c0,10.32,0,20.63,0,30.95c-41.42,0-82.85,0-124.29,0c0-45.83,0-91.67,0-137.51
			C20.66,0.16,41.29,0.16,61.93,0.16z"/>
		<path class="st1" d="M124.33,34.72c-2.48-1.34-4.97-2.66-7.42-4.04C99.31,20.83,81.73,10.98,64.15,1.11
			c-0.52-0.29-1-0.63-1.5-0.95c20.56,0,41.12,0,61.68,0C124.33,11.68,124.33,23.2,124.33,34.72z"/>
		<path class="st2" d="M104.24,49.9c0.15,5.1,0.28,10.2,0.45,15.3c0.13,3.7,0.31,7.4,0.47,11.1c0.16,3.66,0.3,7.32,0.49,10.98
			c0.07,1.31,0.37,2.6,0.4,3.91c0.04,1.96-0.6,3.47-2.61,4.38c-4.34,1.96-8.6,4.08-12.87,6.18c-5.23,2.57-10.42,5.21-15.65,7.79
			c-3.75,1.85-7.52,3.67-11.29,5.49c-1.08,0.53-2.07,0.19-3.07-0.31c-12.61-6.33-25.24-12.63-37.84-18.98
			c-0.95-0.48-1.84-1.13-2.63-1.85c-0.38-0.35-0.68-1.04-0.65-1.56c0.23-4.02,0.54-8.04,0.85-12.06c0.24-3.15,0.47-6.29,0.75-9.43
			c0.38-4.25,0.83-8.5,1.22-12.75c0.21-2.34,0.35-4.69,0.54-7.04c0.15-1.79,0.07-3.66,0.59-5.34c0.34-1.09,1.4-2.16,2.42-2.79
			c6.41-4.02,12.91-7.92,19.37-11.86c5.3-3.23,10.6-6.48,15.9-9.71c1.18-0.72,2.42-0.79,3.63-0.11c4.67,2.61,9.33,5.25,14,7.86
			c5.75,3.21,11.51,6.41,17.27,9.6c1.84,1.02,3.68,2.04,5.52,3.05c1.7,0.93,2.75,2.25,2.66,4.31c-0.06,1.28-0.01,2.56-0.01,3.84
			C104.19,49.9,104.22,49.9,104.24,49.9z M62.96,54.59c-5.95,9.14-11.73,18.02-17.62,27.07c11.49,0,22.59,0,33.98,0
			C73.85,72.61,68.52,63.79,62.96,54.59z M68.37,51.91c5.47,9.03,10.76,17.77,16.22,26.8c4.24-10.33,8.31-20.24,12.5-30.45
			C87.41,49.48,78.1,50.67,68.37,51.91z M29.7,49.28c3.86,9.81,7.6,19.3,11.34,28.8c0.16-0.01,0.32-0.03,0.48-0.04
			c5.08-8.45,10.15-16.9,15.37-25.59C47.75,51.39,38.9,50.36,29.7,49.28z M79.62,87.1c-11.12,0-21.81,0-32.86,0
			c5.34,7.26,10.51,14.29,15.84,21.54C68.36,101.35,73.89,94.35,79.62,87.1z M65.88,27.76c0,6.6,0,12.85,0,19.27
			C75,45.74,84,44.46,93,43.19c0.02-0.12,0.04-0.24,0.06-0.36C84.05,37.84,75.04,32.84,65.88,27.76z M60.02,47.59
			c0.04-0.08,0.08-0.11,0.08-0.14c0.03-6.15,0.06-12.3,0.06-18.46c0-0.85-0.42-0.9-1.08-0.48c-1.61,1.02-3.25,1.99-4.88,2.98
			c-5.64,3.43-11.28,6.86-16.91,10.3c-1.09,0.67-2.14,1.4-3.21,2.1c0.04,0.09,0.08,0.18,0.12,0.27
			C42.78,45.29,51.37,46.43,60.02,47.59z M100.81,88.66c-0.46-10.68-0.91-21.16-1.36-31.64c-0.51,0.27-0.8,0.56-0.95,0.9
			c-0.65,1.54-1.24,3.1-1.88,4.64c-1.33,3.23-2.67,6.46-4,9.69c-1.22,2.98-2.45,5.95-3.63,8.95c-0.62,1.59-0.55,1.6,0.94,2.33
			c3.02,1.49,6.02,3.01,9.03,4.49C99.49,88.28,100.07,88.41,100.81,88.66z M24.71,88.93c0.49-0.16,0.72-0.21,0.93-0.31
			c3.49-1.73,6.96-3.5,10.48-5.19c1.08-0.52,1.16-1.08,0.74-2.14c-2.25-5.62-4.41-11.27-6.61-16.9c-0.84-2.14-1.72-4.26-2.58-6.39
			c-0.12,0-0.24,0.01-0.36,0.01C26.45,68.25,25.59,78.5,24.71,88.93z M72.43,104.56c0.12,0.12,0.24,0.23,0.36,0.35
			c8.11-3.96,16.23-7.91,24.49-11.94c-0.39-0.27-0.57-0.43-0.78-0.53c-3.16-1.58-6.33-3.15-9.49-4.74c-0.8-0.4-1.3-0.13-1.82,0.53
			c-3.53,4.48-7.1,8.93-10.63,13.4C73.81,102.58,73.14,103.58,72.43,104.56z M52.32,104.99c0.1-0.14,0.21-0.28,0.31-0.42
			c-0.27-0.43-0.52-0.87-0.82-1.27c-3.52-4.63-7.02-9.29-10.6-13.88c-1.82-2.34-1.16-2.24-3.83-0.92c-0.43,0.21-0.86,0.4-1.29,0.62
			c-2.41,1.21-4.81,2.43-7.5,3.79C36.67,97.02,44.5,101,52.32,104.99z"/>
		<path class="st3" d="M62.96,54.59c5.56,9.2,10.9,18.02,16.36,27.07c-11.39,0-22.49,0-33.98,0C51.23,72.61,57.01,63.73,62.96,54.59
			z"/>
		<path class="st4" d="M68.37,51.91c9.73-1.24,19.04-2.42,28.72-3.65c-4.19,10.21-8.26,20.12-12.5,30.45
			C79.12,69.68,73.83,60.94,68.37,51.91z"/>
		<path class="st4" d="M29.7,49.28c9.19,1.07,18.04,2.1,27.2,3.17c-5.22,8.7-10.3,17.15-15.37,25.59c-0.16,0.01-0.32,0.03-0.48,0.04
			C37.31,68.59,33.57,59.09,29.7,49.28z"/>
		<path class="st3" d="M79.62,87.1c-5.73,7.25-11.26,14.25-17.02,21.54c-5.33-7.25-10.5-14.28-15.84-21.54
			C57.81,87.1,68.5,87.1,79.62,87.1z"/>
		<path class="st5" d="M65.88,27.76c9.16,5.08,18.16,10.08,27.17,15.08c-0.02,0.12-0.04,0.24-0.06,0.36c-9,1.27-18,2.55-27.11,3.84
			C65.88,40.61,65.88,34.35,65.88,27.76z"/>
		<path class="st6" d="M60.02,47.59c-8.65-1.15-17.23-2.3-25.81-3.44c-0.04-0.09-0.08-0.18-0.12-0.27c1.07-0.7,2.12-1.43,3.21-2.1
			c5.63-3.44,11.27-6.87,16.91-10.3c1.63-0.99,3.27-1.96,4.88-2.98c0.67-0.42,1.08-0.37,1.08,0.48c-0.01,6.15-0.04,12.3-0.06,18.46
			C60.1,47.48,60.06,47.51,60.02,47.59z"/>
		<path class="st7" d="M100.81,88.66c-0.74-0.25-1.32-0.37-1.84-0.63c-3.02-1.48-6.02-3.01-9.03-4.49
			c-1.49-0.73-1.56-0.75-0.94-2.33c1.17-3,2.4-5.97,3.63-8.95c1.33-3.23,2.67-6.46,4-9.69c0.63-1.54,1.23-3.1,1.88-4.64
			c0.15-0.35,0.44-0.63,0.95-0.9C99.9,67.5,100.35,77.98,100.81,88.66z"/>
		<path class="st8" d="M24.71,88.93c0.88-10.43,1.74-20.67,2.6-30.92c0.12,0,0.24-0.01,0.36-0.01c0.86,2.13,1.74,4.25,2.58,6.39
			c2.21,5.63,4.37,11.29,6.61,16.9c0.42,1.05,0.34,1.62-0.74,2.14c-3.51,1.69-6.99,3.46-10.48,5.19
			C25.43,88.71,25.2,88.76,24.71,88.93z"/>
		<path class="st9" d="M72.43,104.56c0.7-0.98,1.37-1.98,2.12-2.93c3.54-4.47,7.11-8.92,10.63-13.4c0.52-0.66,1.01-0.94,1.82-0.53
			c3.16,1.59,6.33,3.16,9.49,4.74c0.21,0.1,0.39,0.26,0.78,0.53c-8.26,4.03-16.37,7.98-24.49,11.94
			C72.67,104.79,72.55,104.68,72.43,104.56z"/>
		<path class="st10" d="M52.32,104.99C44.5,101,36.67,97.02,28.58,92.91c2.69-1.36,5.1-2.58,7.5-3.79c0.43-0.21,0.86-0.41,1.29-0.62
			c2.67-1.32,2.01-1.42,3.83,0.92c3.58,4.59,7.08,9.24,10.6,13.88c0.3,0.4,0.55,0.85,0.82,1.27
			C52.53,104.71,52.43,104.85,52.32,104.99z"/>
	</g>
</g>
</svg>
